<svg xmlns="http://www.w3.org/2000/svg" viewBox="0 0 120 120" aria-hidden="true">
  <!-- corner filigree: gold arcs with pen-flourish curls in rubric red and lapis -->
  <g fill="none" stroke="#B08D3E" stroke-linecap="round">
    <path d="M6 114 C6 54 54 6 114 6" stroke-width="2"/>
    <path d="M6 92 C6 44 44 6 92 6" stroke-width="1" opacity="0.55"/>
  </g>
  <g fill="none" stroke="#A02C1A" stroke-width="1.5" stroke-linecap="round">
    <path d="M18 102 C34 88 52 90 57 76 C60 66 51 59 45 64 C39 69 45 80 55 78"/>
    <path d="M102 18 C88 34 90 52 76 57 C66 60 59 51 64 45 C69 39 80 45 78 55"/>
  </g>
  <g fill="none" stroke="#24528F" stroke-width="1.2" stroke-linecap="round" opacity="0.9">
    <path d="M30 70 C38 62 46 62 52 56"/>
    <path d="M70 30 C62 38 62 46 56 52"/>
  </g>
  <circle cx="16" cy="16" r="3.2" fill="#B08D3E"/>
  <circle cx="38" cy="20" r="1.8" fill="#24528F"/>
  <circle cx="20" cy="38" r="1.8" fill="#24528F"/>
  <circle cx="63" cy="63" r="2.4" fill="#A02C1A"/>
  <circle cx="94" cy="10" r="1.5" fill="#A02C1A"/>
  <circle cx="10" cy="94" r="1.5" fill="#A02C1A"/>
</svg>
